<svg width="160" height="160" viewBox="0 0 160 160" fill="none" xmlns="http://www.w3.org/2000/svg">
<path d="M120 20H40C28.9543 20 20 28.9543 20 40V120C20 131.046 28.9543 140 40 140H120C131.046 140 140 131.046 140 120V40C140 28.9543 131.046 20 120 20Z" fill="#252422"/>
<g>
<path d="M80 130C107.614 130 130 107.614 130 80C130 52.3858 107.614 30 80 30C52.3858 30 30 52.3858 30 80C30 107.614 52.3858 130 80 130Z" fill="#2A2927"/>
</g>
<path d="M61.944 69.736H51.192V63.4H80.472V69.736H69.72V97H61.944V69.736ZM84.6559 63.4H92.4319V90.664H109.28V97H84.6559V63.4Z" fill="#F4B93A"/>
<defs>
</defs>
</svg>
